<?xml version="1.0" encoding="UTF-8"?>
<svg width="234px" height="47px" viewBox="0 0 234 47" version="1.1" xmlns="http://www.w3.org/2000/svg" xmlns:xlink="http://www.w3.org/1999/xlink">
    <!-- Generator: Sketch 44.1 (41455) - http://www.bohemiancoding.com/sketch -->
    <title>solid login</title>
    <desc>Created with Sketch.</desc>
    <defs></defs>
    <g id="Page-1" stroke="none" stroke-width="1" fill="none" fill-rule="evenodd">
        <g id="Step-2" transform="translate(-614.000000, -176.000000)">
            <g id="solid-login" transform="translate(614.000000, 176.000000)">
                <g id="solid2fa-logo-copy-5" transform="translate(47.000000, 12.000000)" fill="#666666">
                    <g id="Group" transform="translate(52.003366, 11.053227) scale(-1, 1) rotate(-180.000000) translate(-52.003366, -11.053227) translate(0.003366, 0.053227)" fill-rule="nonzero">
                        <path d="M6.80593257,21.5035194 C4.91060603,21.4832163 4.80287876,21.4798324 4.46623107,21.4087715 C3.76937033,21.2564982 3.21053515,21.0331639 2.85032211,20.7624558 C2.1803932,20.2616457 1.74611767,19.1991161 1.67205517,17.8827977 C1.63165745,17.2060272 1.63165745,13.8966199 1.66868869,13.2130818 C1.7259188,12.2046939 1.99523696,11.33166 2.42614602,10.7530213 C2.80319144,10.2488274 3.50005217,9.89013906 4.48642993,9.69387564 C5.02506624,9.58220852 6.24036443,9.56528926 12.370719,9.5619054 L17.5954913,9.55852155 L17.5954913,7.20674436 L17.5954913,4.85496717 L11.1150231,4.85496717 L4.63455491,4.85496717 L4.63455491,6.07653777 L4.63455491,7.29810837 L4.54366004,7.2744214 C4.4897964,7.260886 4.10265155,7.16952199 3.67510898,7.06800643 C1.7259188,6.60780255 1.00885921,6.43522609 0.934796713,6.40815527 L0.854001265,6.37431675 L0.877566604,5.80244575 C0.924697282,4.60117827 1.04925693,3.71799288 1.27144441,3.04460631 C1.43303531,2.55733162 1.58452677,2.30354271 1.91107504,1.97530906 C2.16019433,1.72152015 2.24435626,1.66061082 2.55070566,1.51172132 C2.74259485,1.41697347 3.03211187,1.3019225 3.19033629,1.25454857 C3.85689873,1.06505285 3.85689873,1.061669 5.81282186,1.03121433 C8.23331881,0.990608106 16.972693,0.990608106 17.5954913,1.03121433 C18.659298,1.09889137 19.5817127,1.38313495 20.1506473,1.82303572 C20.6320535,2.19525944 20.9821671,2.88556527 21.1841557,3.85673081 C21.3087154,4.46244033 21.3423802,5.51481833 21.3221813,7.9173533 C21.3019824,10.0593317 21.2851501,10.2657466 21.1100933,10.9729717 C20.93167,11.6903484 20.6825507,12.1843908 20.2886729,12.5735337 C20.1001502,12.7630295 19.9587581,12.8679289 19.753403,12.9694444 C19.4537866,13.1217178 18.878119,13.3179812 18.4943406,13.4025775 C18.1139287,13.4871738 16.3835596,13.5142446 11.3136452,13.5142446 C8.81235285,13.5176285 6.44571953,13.52778 6.0552082,13.5413154 L5.34151508,13.5616186 L5.34824803,15.7645063 L5.35834747,17.967394 L11.3405771,17.9775455 L17.3228067,17.9843132 L17.3329061,16.8371874 C17.339639,16.0825883 17.3564714,15.6731422 17.3800368,15.6494553 C17.4036021,15.6257683 17.5921248,15.6629907 18.0196674,15.7814255 C18.3495821,15.8727895 19.032977,16.0555175 19.5312156,16.1874878 C20.8239427,16.525873 21.0696955,16.59355 21.0898944,16.6138531 C21.0999938,16.6240047 21.0898944,16.9556222 21.0696955,17.348149 C20.9653347,19.293864 20.564724,20.2954842 19.6456758,20.9079614 C19.4032894,21.0670025 18.8208889,21.2768013 18.292352,21.3884684 L17.8816418,21.4764486 L15.5251079,21.5035194 C12.9329207,21.533974 9.85932719,21.533974 6.80593257,21.5035194 Z" id="Shape"></path>
                        <path d="M34.1080609,15.0742004 C31.674098,15.0538973 31.2330895,15.0437458 30.9334731,14.992988 C30.0278908,14.8440985 29.5431181,14.6376835 29.1627062,14.2417728 C28.97755,14.0488933 28.6981324,13.4973254 28.6375358,13.2130818 C28.5634733,12.8476258 28.539908,11.8967633 28.5230756,8.44185037 C28.4961438,3.89733704 28.5197091,3.20026351 28.7317971,2.58778628 C28.9607176,1.92455128 29.4017261,1.50833747 30.1221521,1.27146783 C30.946939,1.00075966 31.2835867,0.990608106 38.8648929,1.00752737 C45.062577,1.01767892 45.0827758,1.01767892 45.4867531,1.09212367 C46.0556877,1.19363923 46.3485712,1.28161938 46.7054177,1.45419584 C47.2002899,1.69444934 47.4527756,2.00237988 47.6749631,2.6216248 C47.8769517,3.19011195 47.8668523,2.98031312 47.8836847,7.49437179 C47.9038835,12.8679289 47.8937841,13.0574246 47.5537699,13.7849528 C47.250787,14.4380362 46.6044234,14.8136438 45.4699207,14.992988 C44.8706878,15.0877358 40.2518814,15.1181905 34.1080609,15.0742004 Z M38.7268673,12.4686343 L44.257989,12.4686343 L44.257989,8.0865459 L44.257989,3.70445747 L38.1983304,3.70445747 L32.1386718,3.70445747 L32.1386718,8.0797782 C32.1386718,10.4890809 32.1487713,12.4686343 32.1656037,12.4855536 C32.1790696,12.499089 32.414723,12.5024729 32.6907741,12.4889374 C32.9668252,12.4787859 35.6835721,12.4686343 38.7268673,12.4686343 Z" id="Shape"></path>
                        <path d="M84.184406,8.04932353 L84.184406,0.990608106 L89.513539,1.00752737 C93.0618058,1.01767892 94.99753,1.03459818 95.3106124,1.061669 C97.5223878,1.24101316 99.3234529,1.77227793 100.622913,2.63177636 C102.057032,3.57587109 102.902018,4.8955734 103.208367,6.66532803 C103.299262,7.17967355 103.332927,8.4892243 103.275697,9.02048907 C103.050143,10.9932748 102.147927,12.5126244 100.579149,13.551467 C99.5826717,14.2079343 98.1485525,14.7222798 96.7581975,14.9185432 C95.7213226,15.0640489 93.8899591,15.1046551 88.2511102,15.108039 L84.184406,15.108039 L84.184406,8.04932353 Z M95.5496322,12.4686343 C96.4417486,12.3975734 97.3776292,12.0761075 98.0441917,11.6159036 C98.3067769,11.4331756 98.7141206,11.0237295 98.8925439,10.7631729 C99.0507683,10.5330709 99.2830552,10.0221093 99.3638507,9.72771416 C99.5456404,9.07463071 99.5995041,7.96811108 99.4850438,7.30825992 C99.168595,5.47759595 98.1990496,4.43536952 96.387885,3.97854949 C95.2803141,3.70107362 95.2836806,3.70107362 89.8165219,3.65369969 L87.8875306,3.63678043 L87.8875306,8.09331361 L87.8875306,12.5464629 L91.5165928,12.5261598 C93.5095472,12.5126244 95.3240783,12.4889374 95.5496322,12.4686343 Z" id="Shape"></path>
                        <path d="M75.6503868,14.4278847 C74.6875744,14.0759641 73.8897194,13.7748012 73.8796199,13.7612658 C73.866154,13.7477304 73.8493216,10.8714562 73.8392222,7.36916926 L73.8223898,0.99737581 L75.6705857,0.99737581 L77.5187815,0.99737581 L77.5187815,7.41992704 C77.5187815,13.9067715 77.5053156,15.0742004 77.4379861,15.0742004 C77.4177872,15.0708166 76.6131992,14.7831892 75.6503868,14.4278847 Z" id="Shape"></path>
                        <path d="M56.9664396,14.7222798 C55.8487692,14.3229853 54.3540534,13.7612658 54.2900904,13.7206596 C54.2463262,13.6935888 54.2395932,12.9389898 54.2294938,7.34209845 L54.2193944,0.99737581 L61.9656579,0.99737581 L69.7085549,0.99737581 L69.7085549,2.31707812 L69.7085549,3.63678043 L63.8340526,3.63678043 L57.9595503,3.63678043 L57.9561838,8.77346787 C57.9494509,13.964297 57.9359849,15.0099072 57.8753884,15.0268265 C57.858556,15.0335942 57.4478458,14.8948563 56.9664396,14.7222798 Z" id="Shape"></path>
                    </g>
                    <path d="M113.302734,17.3085938 L121.65625,17.3085938 L121.65625,21 L108.503906,21 L108.503906,1.09375 L113.302734,1.09375 L113.302734,17.3085938 Z M139.662109,11.4570312 C139.662109,12.9791743 139.447919,14.3463481 139.019531,15.5585938 C138.591144,16.7708394 137.991866,17.800777 137.22168,18.6484375 C136.451494,19.496098 135.535487,20.1455056 134.473633,20.5966797 C133.411779,21.0478538 132.247402,21.2734375 130.980469,21.2734375 C129.695306,21.2734375 128.517258,21.0478538 127.446289,20.5966797 C126.37532,20.1455056 125.454756,19.496098 124.68457,18.6484375 C123.914384,17.800777 123.315106,16.7708394 122.886719,15.5585938 C122.458331,14.3463481 122.244141,12.9791743 122.244141,11.4570312 L122.244141,10.6503906 C122.244141,9.1282476 122.456053,7.76107377 122.879883,6.54882812 C123.303713,5.33658248 123.900712,4.30664486 124.670898,3.45898437 C125.441085,2.61132389 126.35937,1.9596377 127.425781,1.50390625 C128.492193,1.0481748 129.667962,0.8203125 130.953125,0.8203125 C132.220058,0.8203125 133.386713,1.0481748 134.453125,1.50390625 C135.519537,1.9596377 136.437822,2.61132389 137.208008,3.45898437 C137.978194,4.30664486 138.57975,5.33658248 139.012695,6.54882812 C139.44564,7.76107377 139.662109,9.1282476 139.662109,10.6503906 L139.662109,11.4570312 Z M134.78125,10.6230469 C134.78125,8.6451724 134.45085,7.14355981 133.790039,6.11816406 C133.129228,5.09276831 132.1836,4.58007812 130.953125,4.58007812 C129.667962,4.58007812 128.708662,5.09276831 128.075195,6.11816406 C127.441729,7.14355981 127.125,8.6451724 127.125,10.6230469 L127.125,11.4570312 C127.125,13.4075618 127.448564,14.9068958 128.095703,15.9550781 C128.742842,17.0032604 129.704421,17.5273438 130.980469,17.5273438 C132.201829,17.5273438 133.140622,17.0055391 133.796875,15.9619141 C134.453128,14.9182891 134.78125,13.4166765 134.78125,11.4570312 L134.78125,10.6230469 Z M158.433594,18.5390625 C158.178384,18.821616 157.822919,19.1223942 157.367188,19.4414062 C156.911456,19.7604183 156.355472,20.0566393 155.699219,20.3300781 C155.042965,20.603517 154.284184,20.8291007 153.422852,21.0068359 C152.561519,21.1845712 151.593104,21.2734375 150.517578,21.2734375 C149.186842,21.2734375 147.983729,21.0592469 146.908203,20.6308594 C145.832677,20.2024718 144.912113,19.5781291 144.146484,18.7578125 C143.380856,17.9374959 142.790692,16.9280659 142.375977,15.7294922 C141.961261,14.5309185 141.753906,13.1569088 141.753906,11.6074219 L141.753906,10.5 C141.753906,8.95051309 141.96354,7.57422477 142.382812,6.37109375 C142.802085,5.16796273 143.387692,4.15397548 144.139648,3.32910156 C144.891605,2.50422765 145.787104,1.87760631 146.826172,1.44921875 C147.86524,1.02083119 149.004551,0.806640625 150.244141,0.806640625 C151.62045,0.806640625 152.800776,0.972980107 153.785156,1.30566406 C154.769536,1.63834802 155.58984,2.10546574 156.246094,2.70703125 C156.902347,3.30859676 157.403644,4.02408439 157.75,4.85351562 C158.096356,5.68294686 158.319661,6.59439607 158.419922,7.58789062 L153.798828,7.58789062 C153.725911,7.09570066 153.614259,6.65820504 153.463867,6.27539063 C153.313476,5.89257621 153.103842,5.56901174 152.834961,5.3046875 C152.566079,5.04036326 152.2334,4.83984443 151.836914,4.703125 C151.440428,4.56640557 150.964195,4.49804688 150.408203,4.49804688 C149.833982,4.49804688 149.312177,4.62109252 148.842773,4.8671875 C148.37337,5.11328248 147.974611,5.48469804 147.646484,5.98144531 C147.318358,6.47819259 147.065431,7.10025668 146.887695,7.84765625 C146.70996,8.59505582 146.621094,9.47004707 146.621094,10.4726562 L146.621094,11.6074219 C146.621094,13.594411 146.960609,15.0869091 147.639648,16.0849609 C148.318688,17.0830128 149.387362,17.5820312 150.845703,17.5820312 C151.228518,17.5820312 151.570311,17.5569664 151.871094,17.5068359 C152.171877,17.4567055 152.436197,17.3906254 152.664062,17.3085938 C152.891928,17.2265621 153.085611,17.1354172 153.245117,17.0351562 C153.404623,16.9348953 153.534505,16.8391932 153.634766,16.7480469 L153.634766,13.6582031 L150.298828,13.6582031 L150.298828,10.3632812 L158.433594,10.3632812 L158.433594,18.5390625 Z M166.335938,21 L161.550781,21 L161.550781,1.09375 L166.335938,1.09375 L166.335938,21 Z M186.296875,21 L181.525391,21 L174.470703,8.61328125 L174.470703,21 L169.671875,21 L169.671875,1.09375 L174.470703,1.09375 L181.511719,13.4804688 L181.511719,1.09375 L186.296875,1.09375 L186.296875,21 Z" id="Login"></path>
                </g>
                <path d="M0.0498676538,6.08805379 C5.5774949,5.60869485 11.8626313,3.57934359 18.9052768,0 C25.8844547,3.45143464 32.1695911,5.4807859 37.7606859,6.08805379 C37.7606859,11.0194685 39.5753133,34.1695631 18.9028844,46.409621 C-1.9222158,34.1695631 0.0502730933,10.9285926 0.0498676538,6.08805379 Z M14.8142391,11.0223126 C12.9627591,11.042146 12.857524,11.0454516 12.5286644,11.1148686 C11.8479248,11.2636192 11.3020178,11.4817868 10.9501379,11.7462324 C10.2957071,12.2354568 9.87147815,13.2734057 9.79912902,14.5592724 C9.75966586,15.2203864 9.75966586,18.4532338 9.79584042,19.1209589 C9.85174657,20.1060188 10.1148343,20.9588558 10.5357747,21.5241083 C10.9040975,22.0166382 11.5848371,22.3670286 12.5483959,22.5587516 C13.0745714,22.6678354 14.2617549,22.6843633 20.2502896,22.6876689 L25.3541918,22.6909744 L25.3541918,24.9883455 L25.3541918,27.2857166 L19.023643,27.2857166 L12.6930942,27.2857166 L12.6930942,26.0924059 L12.6930942,24.8990951 L12.6043021,24.9222341 C12.5516845,24.9354564 12.1734959,25.0247068 11.7558441,25.1238739 C9.85174657,25.5734314 9.15127545,25.7420155 9.07892632,25.76846 L9,25.8015157 L9.02302018,26.3601571 C9.06906053,27.5336344 9.19073861,28.3963881 9.407786,29.0541965 C9.56563865,29.5301986 9.7136255,29.7781164 10.0326194,30.0987566 C10.2759756,30.3466744 10.3581905,30.4061746 10.6574528,30.5516197 C10.8449028,30.6441757 11.1277221,30.7565651 11.2822862,30.802843 C11.9334283,30.9879549 11.9334283,30.9912605 13.8441031,31.0210106 C16.2086042,31.0606775 24.7458014,31.0606775 25.3541918,31.0210106 C26.3933884,30.9548992 27.2944639,30.6772314 27.8502368,30.2475073 C28.3205061,29.8838946 28.6625202,29.2095583 28.859836,28.2608598 C28.9815141,27.6691627 29.0144001,26.6411305 28.9946685,24.2941758 C28.9749369,22.2017501 28.9584939,22.0001103 28.7874869,21.3092462 C28.6131913,20.6084654 28.3698351,20.1258522 27.9850693,19.7457116 C27.8009078,19.5605997 27.6627868,19.458127 27.4621824,19.3589599 C27.1694973,19.2102093 26.6071472,19.0184862 26.2322472,18.935847 C25.8606357,18.8532078 24.170297,18.8267632 19.2176702,18.8267632 C16.7742428,18.8234576 14.4623593,18.8135409 14.080882,18.8003186 L13.3836995,18.7804852 L13.3902767,16.6285592 L13.4001425,14.4766332 L19.243979,14.4667165 L25.0878155,14.4601053 L25.0976813,15.5806935 C25.1042585,16.3178356 25.1207015,16.7178096 25.1437216,16.7409486 C25.1667418,16.7640876 25.3509032,16.7277263 25.768555,16.6120313 C26.0908375,16.522781 26.7584227,16.3442802 27.245135,16.215363 C28.5079562,15.884806 28.7480237,15.8186946 28.7677553,15.7988611 C28.7776211,15.7889444 28.7677553,15.4649986 28.7480237,15.0815525 C28.6460772,13.1808498 28.2547342,12.2024011 27.3569473,11.6040929 C27.1201683,11.4487311 26.5512411,11.2437858 26.0349314,11.134702 L25.6337226,11.0487572 L23.3317048,11.0223126 C20.7994853,10.9925625 17.7969964,10.9925625 14.8142391,11.0223126 Z" id="Combined-Shape" fill="#F57C00"></path>
            </g>
        </g>
    </g>
</svg>