<?xml version="1.0" encoding="UTF-8"?>
<svg width="41px" height="50px" viewBox="0 0 41 50" version="1.1" xmlns="http://www.w3.org/2000/svg" xmlns:xlink="http://www.w3.org/1999/xlink">
    <!-- Generator: Sketch 44.1 (41455) - http://www.bohemiancoding.com/sketch -->
    <title>logo_S</title>
    <desc>Created with Sketch.</desc>
    <defs></defs>
    <g id="Page-1" stroke="none" stroke-width="1" fill="none" fill-rule="evenodd">
        <g id="Step-15-Copy" transform="translate(-350.000000, -135.000000)" fill="#F57C00">
            <g id="Group-9" transform="translate(160.000000, 115.000000)">
                <path d="M190.053726,26.5590428 C196.008986,26.0425993 202.780358,23.8562517 210.367842,20 C217.886949,23.7184473 224.658321,25.9047949 230.681959,26.5590428 C230.681959,31.8719656 232.636971,56.8130168 210.365265,70 C187.929076,56.8130168 190.054162,31.7740593 190.053726,26.5590428 Z M205.96031,31.8750298 C203.965595,31.8963975 203.852218,31.8999588 203.497917,31.9747461 C202.764514,32.1350045 202.176374,32.3700502 201.797271,32.654954 C201.092212,33.1820262 200.635164,34.3002738 200.557217,35.6856188 C200.514701,36.3978784 200.514701,39.8808279 200.553674,40.6002102 C200.613905,41.661477 200.897346,42.5802919 201.350852,43.1892739 C201.747669,43.7199073 202.481073,44.0974049 203.519175,44.3039602 C204.086057,44.4214831 205.365084,44.4392896 211.816909,44.4428509 L217.315664,44.4464121 L217.315664,46.9215143 L217.315664,49.3966165 L210.495366,49.3966165 L203.675068,49.3966165 L203.675068,48.1109879 L203.675068,46.8253593 L203.579406,46.8502884 C203.522718,46.8645336 203.115272,46.9606886 202.665309,47.0675276 C200.613905,47.5518641 199.859244,47.7334903 199.781298,47.7619807 L199.696265,47.7975937 L199.721066,48.3994531 C199.770669,49.6637139 199.90176,50.5932127 200.135599,51.301911 C200.305663,51.814738 200.465099,52.0818353 200.808771,52.4272813 C201.070954,52.6943786 201.159529,52.758482 201.481943,52.9151791 C201.683895,53.0148954 201.988594,53.1359796 202.155116,53.1858378 C202.856632,53.3852705 202.856632,53.3888318 204.915122,53.4208834 C207.462547,53.463619 216.660206,53.463619 217.315664,53.4208834 C218.435255,53.3496575 219.406041,53.0505084 220.00481,52.5875397 C220.51146,52.1957969 220.879934,51.4692921 221.092514,50.4471995 C221.223606,49.8097271 221.259036,48.7021634 221.237778,46.1736417 C221.21652,43.91934 221.198805,43.7021008 221.014568,42.9577895 C220.826788,42.2027943 220.564605,41.6828448 220.150073,41.2732955 C219.951664,41.0738628 219.802858,40.9634626 219.586734,40.8566236 C219.271406,40.6963652 218.665551,40.4898099 218.261648,40.4007775 C217.861287,40.311745 216.040179,40.2832546 210.704403,40.2832546 C208.071945,40.2796933 205.581208,40.2690094 205.170219,40.2547643 L204.4191,40.2333965 L204.426186,37.9149914 L204.436815,35.5965863 L210.732747,35.5859024 L217.02868,35.5787798 L217.039309,36.7860599 C217.046395,37.5802294 217.06411,38.0111464 217.088911,38.0360755 C217.113712,38.0610046 217.312121,38.0218303 217.762083,37.8971849 C218.109298,37.8010298 218.82853,37.6087197 219.352895,37.4698291 C220.713412,37.1136993 220.972052,37.0424733 220.99331,37.0211056 C221.003939,37.0104217 220.99331,36.6614144 220.972052,36.2483039 C220.862218,34.2005574 220.4406,33.1464132 219.473358,32.5018182 C219.218261,32.3344372 218.60532,32.1136367 218.049067,31.9961139 L217.61682,31.9035201 L215.136711,31.8750298 C212.408592,31.8429781 209.173822,31.8429781 205.96031,31.8750298 Z" id="logo_S"></path>
            </g>
        </g>
    </g>
</svg>